{
	"asset":{
		"generator":"Khronos glTF Blender I/O v3.5.30",
		"version":"2.0"
	},
	"scene":0,
	"scenes":[
		{
			"name":"Scene",
			"nodes":[
				0
			]
		}
	],
	"nodes":[
		{
			"mesh":0,
			"name":"Cupboard.005"
		}
	],
	"materials":[
		{
			"doubleSided":true,
			"name":"Material.005",
			"pbrMetallicRoughness":{
				"baseColorFactor":[
					0.8000000715255737,
					0.7976582050323486,
					0.6617630124092102,
					1
				],
				"metallicFactor":0,
				"roughnessFactor":0.5
			}
		},
		{
			"doubleSided":true,
			"name":"Material.006",
			"pbrMetallicRoughness":{
				"baseColorFactor":[
					0,
					0,
					0,
					1
				],
				"metallicFactor":0
			}
		}
	],
	"meshes":[
		{
			"name":"Cube.011",
			"primitives":[
				{
					"attributes":{
						"POSITION":0,
						"TEXCOORD_0":1,
						"NORMAL":2
					},
					"indices":3,
					"material":0
				},
				{
					"attributes":{
						"POSITION":4,
						"TEXCOORD_0":5,
						"NORMAL":6
					},
					"indices":7,
					"material":1
				}
			]
		}
	],
	"accessors":[
		{
			"bufferView":0,
			"componentType":5126,
			"count":180,
			"max":[
				0.20079626142978668,
				0.35110709071159363,
				0.1523115038871765
			],
			"min":[
				-0.1992037445306778,
				-0.3494098484516144,
				-0.16268852353096008
			],
			"type":"VEC3"
		},
		{
			"bufferView":1,
			"componentType":5126,
			"count":180,
			"type":"VEC2"
		},
		{
			"bufferView":2,
			"componentType":5126,
			"count":180,
			"type":"VEC3"
		},
		{
			"bufferView":3,
			"componentType":5123,
			"count":339,
			"type":"SCALAR"
		},
		{
			"bufferView":4,
			"componentType":5126,
			"count":42,
			"max":[
				0.06450513750314713,
				-0.33375856280326843,
				0.15801678597927094
			],
			"min":[
				-0.06349484622478485,
				-0.3519098460674286,
				0.13731151819229126
			],
			"type":"VEC3"
		},
		{
			"bufferView":5,
			"componentType":5126,
			"count":42,
			"type":"VEC2"
		},
		{
			"bufferView":6,
			"componentType":5126,
			"count":42,
			"type":"VEC3"
		},
		{
			"bufferView":7,
			"componentType":5123,
			"count":60,
			"type":"SCALAR"
		}
	],
	"bufferViews":[
		{
			"buffer":0,
			"byteLength":2160,
			"byteOffset":0,
			"target":34962
		},
		{
			"buffer":0,
			"byteLength":1440,
			"byteOffset":2160,
			"target":34962
		},
		{
			"buffer":0,
			"byteLength":2160,
			"byteOffset":3600,
			"target":34962
		},
		{
			"buffer":0,
			"byteLength":678,
			"byteOffset":5760,
			"target":34963
		},
		{
			"buffer":0,
			"byteLength":504,
			"byteOffset":6440,
			"target":34962
		},
		{
			"buffer":0,
			"byteLength":336,
			"byteOffset":6944,
			"target":34962
		},
		{
			"buffer":0,
			"byteLength":504,
			"byteOffset":7280,
			"target":34962
		},
		{
			"buffer":0,
			"byteLength":120,
			"byteOffset":7784,
			"target":34963
		}
	],
	"buffers":[
		{
			"byteLength":7904,
			"uri":"untitled3.bin"
		}
	]
}
