{
	"asset":{
		"generator":"Khronos glTF Blender I/O v3.5.30",
		"version":"2.0"
	},
	"scene":0,
	"scenes":[
		{
			"name":"Scene",
			"nodes":[
				0
			]
		}
	],
	"nodes":[
		{
			"mesh":0,
			"name":"Cupboard.007"
		}
	],
	"materials":[
		{
			"doubleSided":true,
			"name":"Material.002",
			"pbrMetallicRoughness":{
				"baseColorFactor":[
					0.8000000715255737,
					0.7976582050323486,
					0.6617630124092102,
					1
				],
				"metallicFactor":0,
				"roughnessFactor":0.5
			}
		},
		{
			"doubleSided":true,
			"name":"Material.003",
			"pbrMetallicRoughness":{
				"baseColorFactor":[
					0,
					0,
					0,
					1
				],
				"metallicFactor":0
			}
		}
	],
	"meshes":[
		{
			"name":"Cube.001",
			"primitives":[
				{
					"attributes":{
						"POSITION":0,
						"TEXCOORD_0":1,
						"NORMAL":2
					},
					"indices":3,
					"material":0
				},
				{
					"attributes":{
						"POSITION":4,
						"TEXCOORD_0":5,
						"NORMAL":6
					},
					"indices":7,
					"material":1
				}
			]
		}
	],
	"accessors":[
		{
			"bufferView":0,
			"componentType":5126,
			"count":225,
			"max":[
				0.2999984920024872,
				0.35371214151382446,
				0.1444859653711319
			],
			"min":[
				-0.30000150203704834,
				-0.3462877869606018,
				-0.15762175619602203
			],
			"type":"VEC3"
		},
		{
			"bufferView":1,
			"componentType":5126,
			"count":225,
			"type":"VEC2"
		},
		{
			"bufferView":2,
			"componentType":5126,
			"count":225,
			"type":"VEC3"
		},
		{
			"bufferView":3,
			"componentType":5123,
			"count":417,
			"type":"SCALAR"
		},
		{
			"bufferView":4,
			"componentType":5126,
			"count":62,
			"max":[
				0.08489415049552917,
				0.025026634335517883,
				0.15737827122211456
			],
			"min":[
				-0.08488362282514572,
				-0.34878772497177124,
				0.12898588180541992
			],
			"type":"VEC3"
		},
		{
			"bufferView":5,
			"componentType":5126,
			"count":62,
			"type":"VEC2"
		},
		{
			"bufferView":6,
			"componentType":5126,
			"count":62,
			"type":"VEC3"
		},
		{
			"bufferView":7,
			"componentType":5123,
			"count":108,
			"type":"SCALAR"
		}
	],
	"bufferViews":[
		{
			"buffer":0,
			"byteLength":2700,
			"byteOffset":0,
			"target":34962
		},
		{
			"buffer":0,
			"byteLength":1800,
			"byteOffset":2700,
			"target":34962
		},
		{
			"buffer":0,
			"byteLength":2700,
			"byteOffset":4500,
			"target":34962
		},
		{
			"buffer":0,
			"byteLength":834,
			"byteOffset":7200,
			"target":34963
		},
		{
			"buffer":0,
			"byteLength":744,
			"byteOffset":8036,
			"target":34962
		},
		{
			"buffer":0,
			"byteLength":496,
			"byteOffset":8780,
			"target":34962
		},
		{
			"buffer":0,
			"byteLength":744,
			"byteOffset":9276,
			"target":34962
		},
		{
			"buffer":0,
			"byteLength":216,
			"byteOffset":10020,
			"target":34963
		}
	],
	"buffers":[
		{
			"byteLength":10236,
			"uri":"untitled2.bin"
		}
	]
}
