{
	"asset":{
		"generator":"Khronos glTF Blender I/O v3.5.30",
		"version":"2.0"
	},
	"scene":0,
	"scenes":[
		{
			"name":"Scene",
			"nodes":[
				0
			]
		}
	],
	"nodes":[
		{
			"mesh":0,
			"name":"Cupboard.001"
		}
	],
	"materials":[
		{
			"doubleSided":true,
			"name":"Material.001",
			"pbrMetallicRoughness":{
				"baseColorFactor":[
					0.8000000715255737,
					0.7976582050323486,
					0.6617630124092102,
					1
				],
				"metallicFactor":0,
				"roughnessFactor":0.5
			}
		},
		{
			"doubleSided":true,
			"name":"Material.004",
			"pbrMetallicRoughness":{
				"baseColorFactor":[
					0,
					0,
					0,
					1
				],
				"metallicFactor":0
			}
		}
	],
	"meshes":[
		{
			"name":"Cube.004",
			"primitives":[
				{
					"attributes":{
						"POSITION":0,
						"TEXCOORD_0":1,
						"NORMAL":2
					},
					"indices":3,
					"material":0
				},
				{
					"attributes":{
						"POSITION":4,
						"TEXCOORD_0":5,
						"NORMAL":6
					},
					"indices":7,
					"material":1
				}
			]
		}
	],
	"accessors":[
		{
			"bufferView":0,
			"componentType":5126,
			"count":224,
			"max":[
				0.30000004172325134,
				0.3499999940395355,
				0.3150000274181366
			],
			"min":[
				-0.30000004172325134,
				-0.3499999940395355,
				-0.30000004172325134
			],
			"type":"VEC3"
		},
		{
			"bufferView":1,
			"componentType":5126,
			"count":224,
			"type":"VEC2"
		},
		{
			"bufferView":2,
			"componentType":5126,
			"count":224,
			"type":"VEC3"
		},
		{
			"bufferView":3,
			"componentType":5123,
			"count":441,
			"type":"SCALAR"
		},
		{
			"bufferView":4,
			"componentType":5126,
			"count":80,
			"max":[
				0.08687582612037659,
				0.3523883521556854,
				0.33007702231407166
			],
			"min":[
				-0.08627757430076599,
				-0.019592327997088432,
				0.30000001192092896
			],
			"type":"VEC3"
		},
		{
			"bufferView":5,
			"componentType":5126,
			"count":80,
			"type":"VEC2"
		},
		{
			"bufferView":6,
			"componentType":5126,
			"count":80,
			"type":"VEC3"
		},
		{
			"bufferView":7,
			"componentType":5123,
			"count":114,
			"type":"SCALAR"
		}
	],
	"bufferViews":[
		{
			"buffer":0,
			"byteLength":2688,
			"byteOffset":0,
			"target":34962
		},
		{
			"buffer":0,
			"byteLength":1792,
			"byteOffset":2688,
			"target":34962
		},
		{
			"buffer":0,
			"byteLength":2688,
			"byteOffset":4480,
			"target":34962
		},
		{
			"buffer":0,
			"byteLength":882,
			"byteOffset":7168,
			"target":34963
		},
		{
			"buffer":0,
			"byteLength":960,
			"byteOffset":8052,
			"target":34962
		},
		{
			"buffer":0,
			"byteLength":640,
			"byteOffset":9012,
			"target":34962
		},
		{
			"buffer":0,
			"byteLength":960,
			"byteOffset":9652,
			"target":34962
		},
		{
			"buffer":0,
			"byteLength":228,
			"byteOffset":10612,
			"target":34963
		}
	],
	"buffers":[
		{
			"byteLength":10840,
			"uri":"untitled1.bin"
		}
	]
}
