{
	"asset":{
		"generator":"Khronos glTF Blender I/O v3.5.30",
		"version":"2.0"
	},
	"scene":0,
	"scenes":[
		{
			"name":"Scene",
			"nodes":[
				0
			]
		}
	],
	"nodes":[
		{
			"mesh":0,
			"name":"Cube"
		}
	],
	"materials":[
		{
			"doubleSided":true,
			"name":"Material",
			"pbrMetallicRoughness":{
				"baseColorFactor":[
					0.0621323324739933,
					0.048335716128349304,
					0.04047649726271629,
					1
				],
				"metallicFactor":0,
				"roughnessFactor":0.5
			}
		},
		{
			"doubleSided":true,
			"name":"Material.001",
			"pbrMetallicRoughness":{
				"baseColorFactor":[
					1,
					0.9265717267990112,
					0.8779763579368591,
					1
				],
				"metallicFactor":0.5,
				"roughnessFactor":0.5
			}
		}
	],
	"meshes":[
		{
			"name":"Cube",
			"primitives":[
				{
					"attributes":{
						"POSITION":0,
						"TEXCOORD_0":1,
						"NORMAL":2
					},
					"indices":3,
					"material":0
				},
				{
					"attributes":{
						"POSITION":4,
						"TEXCOORD_0":5,
						"NORMAL":6
					},
					"indices":7,
					"material":1
				}
			]
		}
	],
	"accessors":[
		{
			"bufferView":0,
			"componentType":5126,
			"count":78,
			"max":[
				0.29999983310699463,
				0.4000000059604645,
				0.2849999964237213
			],
			"min":[
				-0.29999983310699463,
				-0.4000000059604645,
				-0.2849999964237213
			],
			"type":"VEC3"
		},
		{
			"bufferView":1,
			"componentType":5126,
			"count":78,
			"type":"VEC2"
		},
		{
			"bufferView":2,
			"componentType":5126,
			"count":78,
			"type":"VEC3"
		},
		{
			"bufferView":3,
			"componentType":5123,
			"count":180,
			"type":"SCALAR"
		},
		{
			"bufferView":4,
			"componentType":5126,
			"count":32,
			"max":[
				0.2591118812561035,
				0.35911208391189575,
				0.2849999964237213
			],
			"min":[
				-0.2591118812561035,
				-0.35911208391189575,
				0.2726364731788635
			],
			"type":"VEC3"
		},
		{
			"bufferView":5,
			"componentType":5126,
			"count":32,
			"type":"VEC2"
		},
		{
			"bufferView":6,
			"componentType":5126,
			"count":32,
			"type":"VEC3"
		},
		{
			"bufferView":7,
			"componentType":5123,
			"count":48,
			"type":"SCALAR"
		}
	],
	"bufferViews":[
		{
			"buffer":0,
			"byteLength":936,
			"byteOffset":0,
			"target":34962
		},
		{
			"buffer":0,
			"byteLength":624,
			"byteOffset":936,
			"target":34962
		},
		{
			"buffer":0,
			"byteLength":936,
			"byteOffset":1560,
			"target":34962
		},
		{
			"buffer":0,
			"byteLength":360,
			"byteOffset":2496,
			"target":34963
		},
		{
			"buffer":0,
			"byteLength":384,
			"byteOffset":2856,
			"target":34962
		},
		{
			"buffer":0,
			"byteLength":256,
			"byteOffset":3240,
			"target":34962
		},
		{
			"buffer":0,
			"byteLength":384,
			"byteOffset":3496,
			"target":34962
		},
		{
			"buffer":0,
			"byteLength":96,
			"byteOffset":3880,
			"target":34963
		}
	],
	"buffers":[
		{
			"byteLength":3976,
			"uri":"example.bin"
		}
	]
}
