<svg width="117" height="27" viewBox="0 0 117 27" fill="none" xmlns="http://www.w3.org/2000/svg">
<mask id="path-1-outside-1_10_180" maskUnits="userSpaceOnUse" x="0" y="0" width="26" height="26" fill="black">
<rect fill="white" width="26" height="26"/>
<path fill-rule="evenodd" clip-rule="evenodd" d="M1 2C1 1.44772 1.44772 1 2 1H24C24.5523 1 25 1.44772 25 2V24C25 24.5523 24.5523 25 24 25H2C1.44772 25 1 24.5523 1 24V2ZM2.6 3.6C2.6 3.04771 3.04772 2.6 3.6 2.6H12.2V23.4H3.6C3.04772 23.4 2.6 22.9523 2.6 22.4V3.6ZM22.4 2.6H13.8V23.4H22.4C22.9523 23.4 23.4 22.9523 23.4 22.4V3.6C23.4 3.04771 22.9523 2.6 22.4 2.6ZM9 11.4C9 10.9582 9.35818 10.6 9.8 10.6C10.2418 10.6 10.6 10.9582 10.6 11.4V14.6C10.6 15.0418 10.2418 15.4 9.8 15.4C9.35818 15.4 9 15.0418 9 14.6V11.4ZM16.2 10.6C15.7582 10.6 15.4 10.9582 15.4 11.4V14.6C15.4 15.0418 15.7582 15.4 16.2 15.4C16.6418 15.4 17 15.0418 17 14.6V11.4C17 10.9582 16.6418 10.6 16.2 10.6Z"/>
</mask>
<path d="M12.2 2.6H12.7V2.1H12.2V2.6ZM12.2 23.4V23.9H12.7V23.4H12.2ZM13.8 2.6V2.1H13.3V2.6H13.8ZM13.8 23.4H13.3V23.9H13.8V23.4ZM2 0.5C1.17157 0.5 0.5 1.17157 0.5 2H1.5C1.5 1.72386 1.72386 1.5 2 1.5V0.5ZM24 0.5H2V1.5H24V0.5ZM25.5 2C25.5 1.17157 24.8284 0.5 24 0.5V1.5C24.2761 1.5 24.5 1.72386 24.5 2H25.5ZM25.5 24V2H24.5V24H25.5ZM24 25.5C24.8284 25.5 25.5 24.8284 25.5 24H24.5C24.5 24.2761 24.2761 24.5 24 24.5V25.5ZM2 25.5H24V24.5H2V25.5ZM0.5 24C0.5 24.8284 1.17157 25.5 2 25.5V24.5C1.72386 24.5 1.5 24.2761 1.5 24H0.5ZM0.5 2V24H1.5V2H0.5ZM3.6 2.1C2.77158 2.1 2.1 2.77157 2.1 3.6H3.1C3.1 3.32386 3.32386 3.1 3.6 3.1V2.1ZM12.2 2.1H3.6V3.1H12.2V2.1ZM12.7 23.4V2.6H11.7V23.4H12.7ZM3.6 23.9H12.2V22.9H3.6V23.9ZM2.1 22.4C2.1 23.2284 2.77158 23.9 3.6 23.9V22.9C3.32386 22.9 3.1 22.6761 3.1 22.4H2.1ZM2.1 3.6V22.4H3.1V3.6H2.1ZM13.8 3.1H22.4V2.1H13.8V3.1ZM14.3 23.4V2.6H13.3V23.4H14.3ZM22.4 22.9H13.8V23.9H22.4V22.9ZM22.9 22.4C22.9 22.6761 22.6761 22.9 22.4 22.9V23.9C23.2284 23.9 23.9 23.2284 23.9 22.4H22.9ZM22.9 3.6V22.4H23.9V3.6H22.9ZM22.4 3.1C22.6761 3.1 22.9 3.32386 22.9 3.6H23.9C23.9 2.77157 23.2284 2.1 22.4 2.1V3.1ZM9.8 10.1C9.08203 10.1 8.5 10.682 8.5 11.4H9.5C9.5 11.2343 9.63432 11.1 9.8 11.1V10.1ZM11.1 11.4C11.1 10.682 10.518 10.1 9.8 10.1V11.1C9.96569 11.1 10.1 11.2343 10.1 11.4H11.1ZM11.1 14.6V11.4H10.1V14.6H11.1ZM9.8 15.9C10.518 15.9 11.1 15.318 11.1 14.6H10.1C10.1 14.7657 9.96569 14.9 9.8 14.9V15.9ZM8.5 14.6C8.5 15.318 9.08203 15.9 9.8 15.9V14.9C9.63432 14.9 9.5 14.7657 9.5 14.6H8.5ZM8.5 11.4V14.6H9.5V11.4H8.5ZM15.9 11.4C15.9 11.2343 16.0343 11.1 16.2 11.1V10.1C15.482 10.1 14.9 10.682 14.9 11.4H15.9ZM15.9 14.6V11.4H14.9V14.6H15.9ZM16.2 14.9C16.0343 14.9 15.9 14.7657 15.9 14.6H14.9C14.9 15.318 15.482 15.9 16.2 15.9V14.9ZM16.5 14.6C16.5 14.7657 16.3657 14.9 16.2 14.9V15.9C16.918 15.9 17.5 15.318 17.5 14.6H16.5ZM16.5 11.4V14.6H17.5V11.4H16.5ZM16.2 11.1C16.3657 11.1 16.5 11.2343 16.5 11.4H17.5C17.5 10.682 16.918 10.1 16.2 10.1V11.1Z" fill="#D8721D" mask="url(#path-1-outside-1_10_180)"/>
<path d="M29.809 14C29.3988 14 29.1937 13.7803 29.1937 13.3408V2.05566C29.1937 1.61621 29.3988 1.39648 29.809 1.39648H31.1449C31.5551 1.39648 31.7602 1.61621 31.7602 2.05566V5.55371C31.7602 5.90527 31.7455 6.25684 31.7162 6.6084H31.7777L36.0492 1.91504C36.3656 1.56934 36.6352 1.39648 36.8578 1.39648H38.6244C39.31 1.39648 39.4213 1.64844 38.9584 2.15234L34.9594 6.5293L39.2396 13.2441C39.5619 13.748 39.4506 14 38.9057 14H37.2621C36.9574 14 36.6937 13.8271 36.4711 13.4814L33.2367 8.41016L31.7602 10.0713V13.3408C31.7602 13.7803 31.5551 14 31.1449 14H29.809ZM43.5797 14C43.1695 14 42.9645 13.7803 42.9645 13.3408V2.05566C42.9645 1.61621 43.1695 1.39648 43.5797 1.39648H44.9156C45.3258 1.39648 45.5309 1.61621 45.5309 2.05566V13.3408C45.5309 13.7803 45.3258 14 44.9156 14H43.5797ZM49.6951 3.64648C49.2557 3.64648 49.0359 3.45605 49.0359 3.0752V1.96777C49.0359 1.58691 49.2557 1.39648 49.6951 1.39648H58.7303C59.1697 1.39648 59.3895 1.58691 59.3895 1.96777V3.0752C59.3895 3.45605 59.1697 3.64648 58.7303 3.64648H55.4959V13.5166C55.4959 13.8389 55.3494 14 55.0564 14H53.3689C53.076 14 52.9295 13.8389 52.9295 13.5166V3.64648H49.6951ZM62.2441 7.69824C62.2441 5.67676 62.7568 4.07129 63.7822 2.88184C64.8076 1.69238 66.2871 1.09766 68.2207 1.09766C69.334 1.09766 70.2773 1.27051 71.0508 1.61621C71.8242 1.96191 72.3691 2.46289 72.6855 3.11914C72.8965 3.55273 72.8613 3.8457 72.5801 3.99805L71.5254 4.56055C71.1562 4.75977 70.8516 4.64844 70.6113 4.22656C70.459 3.95703 70.1748 3.71387 69.7588 3.49707C69.3486 3.28027 68.8652 3.17188 68.3086 3.17188C67.0781 3.17188 66.2168 3.56152 65.7246 4.34082C65.2324 5.11426 64.9863 6.2334 64.9863 7.69824C64.9863 9.16309 65.2324 10.2852 65.7246 11.0645C66.2168 11.8379 67.0781 12.2246 68.3086 12.2246C68.9707 12.2246 69.5273 12.0752 69.9785 11.7764C70.4355 11.4775 70.752 11.1934 70.9277 10.9238C71.2148 10.4844 71.5195 10.373 71.8418 10.5898L72.8965 11.293C73.1836 11.4863 73.2129 11.7793 72.9844 12.1719C72.6445 12.7578 72.0615 13.2588 71.2354 13.6748C70.4092 14.0908 69.4043 14.2988 68.2207 14.2988C66.3164 14.2988 64.8428 13.7041 63.7998 12.5146C62.7627 11.3252 62.2441 9.71973 62.2441 7.69824ZM77.7727 14C77.3625 14 77.1574 13.7803 77.1574 13.3408V2.05566C77.1574 1.61621 77.3625 1.39648 77.7727 1.39648H79.1086C79.5187 1.39648 79.7238 1.61621 79.7238 2.05566V6.35352H84.4523V2.05566C84.4523 1.61621 84.6574 1.39648 85.0676 1.39648H86.4035C86.8137 1.39648 87.0187 1.61621 87.0187 2.05566V13.3408C87.0187 13.7803 86.8137 14 86.4035 14H85.0676C84.6574 14 84.4523 13.7803 84.4523 13.3408V8.5332H79.7238V13.3408C79.7238 13.7803 79.5187 14 79.1086 14H77.7727ZM92.2465 14C91.8363 14 91.6312 13.7803 91.6312 13.3408V2.05566C91.6312 1.61621 91.8363 1.39648 92.2465 1.39648H99.7875C100.227 1.39648 100.447 1.58691 100.447 1.96777V3.00488C100.447 3.38574 100.227 3.57617 99.7875 3.57617H94.1977V6.37109H99.3217C99.7611 6.37109 99.9809 6.56152 99.9809 6.94238V7.97949C99.9809 8.36035 99.7611 8.55078 99.3217 8.55078H94.1977V11.8203H100.069C100.508 11.8203 100.728 12.0107 100.728 12.3916V13.4287C100.728 13.8096 100.508 14 100.069 14H92.2465ZM105.296 14C104.886 14 104.681 13.7803 104.681 13.3408V2.05566C104.681 1.61621 104.886 1.39648 105.296 1.39648H106.597C107.101 1.39648 107.482 1.60156 107.74 2.01172L112.222 9.20996H112.284C112.254 8.8584 112.24 8.50684 112.24 8.15527V2.05566C112.24 1.61621 112.445 1.39648 112.855 1.39648H114.191C114.601 1.39648 114.806 1.61621 114.806 2.05566V13.3408C114.806 13.7803 114.601 14 114.191 14H112.978C112.474 14 112.093 13.7949 111.836 13.3848L107.265 6.05469H107.204C107.233 6.40625 107.248 6.75781 107.248 7.10938V13.3408C107.248 13.7803 107.043 14 106.632 14H105.296Z" fill="#EBEAEA"/>
<path d="M28.9747 21.1802C28.9747 20.4103 29.1609 19.7336 29.5333 19.1499C29.9057 18.5627 30.4499 18.269 31.1661 18.269C31.5779 18.269 31.9073 18.3371 32.1544 18.4731C32.4014 18.6092 32.6234 18.7954 32.8204 19.0317H32.8311C32.824 18.9243 32.8204 18.8151 32.8204 18.7041V16.314C32.8204 16.1528 32.901 16.0723 33.0621 16.0723H33.524C33.6851 16.0723 33.7657 16.1528 33.7657 16.314V23.7583C33.7657 23.9194 33.6851 24 33.524 24H33.0728C32.9439 24 32.8741 23.9194 32.8634 23.7583L32.8311 23.3286H32.8204C32.6234 23.5649 32.4014 23.7511 32.1544 23.8872C31.9073 24.0233 31.5779 24.0913 31.1661 24.0913C30.4499 24.0913 29.9057 23.7995 29.5333 23.2158C29.1609 22.6286 28.9747 21.95 28.9747 21.1802ZM29.9737 21.1802C29.9737 21.839 30.0865 22.3726 30.3121 22.7808C30.5413 23.189 30.928 23.3931 31.4722 23.3931C31.859 23.3931 32.1794 23.2624 32.4337 23.001C32.6915 22.736 32.8204 22.335 32.8204 21.7979V20.5625C32.8204 20.0254 32.6915 19.6261 32.4337 19.3647C32.1794 19.0998 31.859 18.9673 31.4722 18.9673C30.928 18.9673 30.5413 19.1714 30.3121 19.5796C30.0865 19.9878 29.9737 20.5213 29.9737 21.1802ZM41.3703 21.1802C41.3703 20.2922 41.5923 19.585 42.0363 19.0586C42.4803 18.5322 43.1159 18.269 43.9431 18.269C44.6306 18.269 45.1999 18.5107 45.6511 18.9941C46.1058 19.474 46.3332 20.242 46.3332 21.2983C46.3332 21.4595 46.2598 21.54 46.113 21.54H42.3693C42.4302 22.2311 42.6164 22.7127 42.9279 22.9849C43.2395 23.2534 43.5922 23.3877 43.986 23.3877C44.4014 23.3877 44.7201 23.3179 44.9421 23.1782C45.1641 23.0386 45.327 22.9007 45.4309 22.7646C45.5454 22.6143 45.6564 22.5856 45.7639 22.6787L46.0808 22.9526C46.1631 23.0243 46.1631 23.1227 46.0808 23.248C46.0127 23.3519 45.8176 23.5184 45.4953 23.7476C45.1766 23.9767 44.6735 24.0913 43.986 24.0913C43.0909 24.0913 42.4302 23.8281 42.0041 23.3018C41.5816 22.7754 41.3703 22.0682 41.3703 21.1802ZM42.3478 20.8418H45.3825C45.3682 20.3405 45.2393 19.9019 44.9958 19.5259C44.7523 19.1463 44.3942 18.9565 43.9216 18.9565C43.5062 18.9565 43.1535 19.0962 42.8635 19.3755C42.5734 19.6512 42.4016 20.14 42.3478 20.8418ZM53.7337 23.4736C53.6227 23.3698 53.5994 23.2731 53.6639 23.1836L53.9056 22.8452C53.9844 22.7378 54.1007 22.7432 54.2547 22.8613C54.466 23.0225 54.7005 23.1514 54.9583 23.248C55.2197 23.3447 55.5169 23.3931 55.8499 23.3931C56.0469 23.3931 56.2223 23.3698 56.3763 23.3232C56.5303 23.2731 56.6645 23.1818 56.7791 23.0493C56.8973 22.9168 56.9564 22.7396 56.9564 22.5176C56.9564 22.3887 56.9277 22.2669 56.8704 22.1523C56.8167 22.0378 56.7308 21.9465 56.6126 21.8784C56.498 21.8068 56.3852 21.7513 56.2742 21.7119C56.0916 21.6439 55.909 21.5884 55.7264 21.5454C55.5473 21.4989 55.311 21.429 55.0174 21.3359C54.8205 21.2751 54.6343 21.1891 54.4588 21.0781C54.2834 20.9635 54.1294 20.8096 53.9969 20.6162C53.868 20.4229 53.8035 20.1561 53.8035 19.8159C53.8035 19.4686 53.9092 19.1696 54.1204 18.9189C54.3317 18.6683 54.5967 18.4982 54.9153 18.4087C55.234 18.3156 55.5438 18.269 55.8445 18.269C56.2886 18.269 56.6448 18.321 56.9134 18.4248C57.1855 18.5251 57.4201 18.645 57.617 18.7847C57.7316 18.867 57.7477 18.9619 57.6653 19.0693L57.4237 19.3916C57.3485 19.4954 57.2321 19.4919 57.0745 19.3809C56.942 19.2878 56.7541 19.2 56.5106 19.1177C56.2671 19.0353 56.054 18.9941 55.8714 18.9941C55.6458 18.9941 55.4525 19.0192 55.2913 19.0693C55.1302 19.1195 54.9995 19.2054 54.8992 19.3271C54.799 19.4489 54.7488 19.5921 54.7488 19.7568C54.7488 19.8822 54.7685 19.995 54.8079 20.0952C54.8473 20.1919 54.9207 20.2814 55.0281 20.3638C55.1356 20.4461 55.286 20.5124 55.4793 20.5625C55.7801 20.6413 56.054 20.7129 56.3011 20.7773C56.5517 20.8418 56.7773 20.9206 56.9778 21.0137C57.2392 21.1354 57.4398 21.2697 57.5794 21.4165C57.7226 21.5633 57.8211 21.7227 57.8748 21.8945C57.9285 22.0628 57.9554 22.2508 57.9554 22.4585C57.9554 22.8416 57.8408 23.1657 57.6116 23.4307C57.3861 23.6956 57.1336 23.8729 56.8543 23.9624C56.575 24.0483 56.2384 24.0913 55.8445 24.0913C55.311 24.0913 54.8527 24.0161 54.4695 23.8657C54.09 23.7118 53.8447 23.5811 53.7337 23.4736ZM65.6459 24C65.4848 24 65.4042 23.9194 65.4042 23.7583V18.6021C65.4042 18.4409 65.4848 18.3604 65.6459 18.3604H66.1078C66.269 18.3604 66.3495 18.4409 66.3495 18.6021V23.7583C66.3495 23.9194 66.269 24 66.1078 24H65.6459ZM65.6459 17.3398C65.4848 17.3398 65.4042 17.2593 65.4042 17.0981V16.6362C65.4042 16.4751 65.4848 16.3945 65.6459 16.3945H66.1078C66.269 16.3945 66.3495 16.4751 66.3495 16.6362V17.0981C66.3495 17.2593 66.269 17.3398 66.1078 17.3398H65.6459ZM73.9488 21.1802C73.9488 20.4103 74.135 19.7336 74.5074 19.1499C74.8798 18.5627 75.424 18.269 76.1402 18.269C76.552 18.269 76.8814 18.3371 77.1285 18.4731C77.3755 18.6092 77.5976 18.7954 77.7945 19.0317H77.8052L77.8375 18.6021C77.8482 18.4409 77.918 18.3604 78.0469 18.3604H78.4981C78.6592 18.3604 78.7398 18.4409 78.7398 18.6021V24.043C78.7398 24.7305 78.5805 25.2676 78.2618 25.6543C77.9467 26.0446 77.3218 26.2397 76.3873 26.2397C75.7606 26.2397 75.2916 26.1681 74.98 26.0249C74.6685 25.8853 74.4465 25.7367 74.314 25.5791C74.2173 25.4609 74.212 25.3607 74.2979 25.2783L74.5933 24.9883C74.6757 24.9095 74.7903 24.9346 74.9371 25.0635C75.1268 25.2354 75.3095 25.3571 75.4849 25.4287C75.6604 25.5039 75.9629 25.5415 76.3926 25.5415C76.8796 25.5415 77.2341 25.4377 77.4561 25.23C77.6817 25.0223 77.7945 24.5926 77.7945 23.9409V23.6187C77.7945 23.5076 77.7981 23.3984 77.8052 23.291H77.7945C77.6083 23.5381 77.3881 23.7332 77.1338 23.8765C76.8832 24.0197 76.552 24.0913 76.1402 24.0913C75.424 24.0913 74.8798 23.7995 74.5074 23.2158C74.135 22.6286 73.9488 21.95 73.9488 21.1802ZM74.9478 21.1802C74.9478 21.839 75.0606 22.3726 75.2862 22.7808C75.5154 23.189 75.9021 23.3931 76.4463 23.3931C76.8331 23.3931 77.1535 23.2624 77.4078 23.001C77.6656 22.736 77.7945 22.335 77.7945 21.7979V20.5625C77.7945 20.0254 77.6656 19.6261 77.4078 19.3647C77.1535 19.0998 76.8331 18.9673 76.4463 18.9673C75.9021 18.9673 75.5154 19.1714 75.2862 19.5796C75.0606 19.9878 74.9478 20.5213 74.9478 21.1802ZM86.8923 24C86.7311 24 86.6506 23.9194 86.6506 23.7583V18.6021C86.6506 18.4409 86.7311 18.3604 86.8923 18.3604H87.3434C87.5046 18.3604 87.5851 18.4409 87.5851 18.6021V19.0317H87.6066C87.8394 18.7739 88.09 18.5824 88.3586 18.457C88.6271 18.3317 88.9619 18.269 89.363 18.269C90.0147 18.269 90.4819 18.4535 90.7648 18.8223C91.0513 19.1875 91.1945 19.6888 91.1945 20.3262V23.7583C91.1945 23.9194 91.1139 24 90.9528 24H90.4909C90.3298 24 90.2492 23.9194 90.2492 23.7583V20.584C90.2492 19.8822 90.1328 19.4382 89.9001 19.252C89.6673 19.0622 89.3719 18.9673 89.0138 18.9673C88.5484 18.9673 88.1957 19.1069 87.9557 19.3862C87.7158 19.6619 87.5959 20.1364 87.5959 20.8096V23.7583C87.5959 23.9194 87.5153 24 87.3542 24H86.8923ZM98.783 21.1802C98.783 20.2922 99.005 19.585 99.449 19.0586C99.893 18.5322 100.529 18.269 101.356 18.269C102.043 18.269 102.613 18.5107 103.064 18.9941C103.519 19.474 103.746 20.242 103.746 21.2983C103.746 21.4595 103.672 21.54 103.526 21.54H99.782C99.8429 22.2311 100.029 22.7127 100.341 22.9849C100.652 23.2534 101.005 23.3877 101.399 23.3877C101.814 23.3877 102.133 23.3179 102.355 23.1782C102.577 23.0386 102.74 22.9007 102.844 22.7646C102.958 22.6143 103.069 22.5856 103.177 22.6787L103.493 22.9526C103.576 23.0243 103.576 23.1227 103.493 23.248C103.425 23.3519 103.23 23.5184 102.908 23.7476C102.589 23.9767 102.086 24.0913 101.399 24.0913C100.504 24.0913 99.8429 23.8281 99.4168 23.3018C98.9943 22.7754 98.783 22.0682 98.783 21.1802ZM99.7605 20.8418H102.795C102.781 20.3405 102.652 19.9019 102.408 19.5259C102.165 19.1463 101.807 18.9565 101.334 18.9565C100.919 18.9565 100.566 19.0962 100.276 19.3755C99.9861 19.6512 99.8143 20.14 99.7605 20.8418ZM111.608 24C111.447 24 111.367 23.9194 111.367 23.7583V18.6021C111.367 18.4409 111.447 18.3604 111.608 18.3604H112.059C112.221 18.3604 112.301 18.4409 112.301 18.6021V19.2466H112.323C112.495 18.9243 112.697 18.6808 112.93 18.5161C113.162 18.3514 113.452 18.269 113.8 18.269C114.029 18.269 114.19 18.2887 114.283 18.3281C114.365 18.3604 114.396 18.4141 114.374 18.4893L114.251 18.9297C114.233 18.9941 114.186 19.0192 114.111 19.0049C113.986 18.9798 113.868 18.9673 113.757 18.9673C113.338 18.9673 112.992 19.1571 112.72 19.5366C112.448 19.9126 112.312 20.4264 112.312 21.0781V23.7583C112.312 23.9194 112.231 24 112.07 24H111.608Z" fill="#C8C6C6"/>
</svg>
